<svg width="45" height="32" viewBox="0 0 45 32" fill="none" xmlns="http://www.w3.org/2000/svg">
<g clip-path="url(#clip0_637_278)">
<path d="M41.0827 0.195312H3.91768C1.86511 0.195312 0.201172 1.85941 0.201172 3.91219V27.3872C0.201172 29.44 1.86511 31.1041 3.91768 31.1041H41.0827C43.1353 31.1041 44.7993 29.44 44.7993 27.3872V3.91219C44.7993 1.85941 43.1353 0.195312 41.0827 0.195312Z" stroke="black" stroke-width="0.391211"/>
<path d="M41.0827 0.195312H3.91768C1.86511 0.195312 0.201172 1.85941 0.201172 3.91219V27.3872C0.201172 29.44 1.86511 31.1041 3.91768 31.1041H41.0827C43.1353 31.1041 44.7993 29.44 44.7993 27.3872V3.91219C44.7993 1.85941 43.1353 0.195312 41.0827 0.195312Z" stroke="black" stroke-width="0.391211"/>
<path d="M19.7355 21.1685H16.8516L18.6554 9.98438H21.5391L19.7355 21.1685Z" fill="#00579F"/>
<path d="M30.1899 10.2574C29.6211 10.0311 28.7188 9.78125 27.6033 9.78125C24.7554 9.78125 22.7499 11.3041 22.7376 13.4813C22.7139 15.0877 24.1734 15.9799 25.265 16.5155C26.3808 17.0628 26.76 17.4201 26.76 17.9079C26.7487 18.6572 25.8585 19.0026 25.0282 19.0026C23.8768 19.0026 23.2599 18.8245 22.3224 18.4076L21.9426 18.229L21.5391 20.7395C22.2154 21.0485 23.4616 21.3228 24.7554 21.3348C27.7813 21.3348 29.7513 19.8355 29.7746 17.5153C29.7861 16.2421 29.0155 15.2666 27.3539 14.4694C26.3453 13.9576 25.7276 13.6126 25.7276 13.089C25.7394 12.613 26.2501 12.1255 27.3886 12.1255C28.3262 12.1016 29.015 12.3276 29.5368 12.5537L29.7977 12.6725L30.1899 10.2574Z" fill="#00579F"/>
<path d="M34.0223 17.2063C34.2599 16.5638 35.1737 14.0771 35.1737 14.0771C35.1618 14.101 35.4108 13.4228 35.5532 13.0064L35.7547 13.9701C35.7547 13.9701 36.3008 16.6472 36.4194 17.2063C35.9687 17.2063 34.592 17.2063 34.0223 17.2063ZM37.5821 9.98438H35.3515C34.6635 9.98438 34.1409 10.1865 33.8442 10.9123L29.5605 21.1683H32.5865C32.5865 21.1683 33.0847 19.7879 33.1917 19.4907C33.5237 19.4907 36.4673 19.4907 36.8944 19.4907C36.9772 19.8833 37.2385 21.1683 37.2385 21.1683H39.9086L37.5821 9.98438Z" fill="#00579F"/>
<path d="M14.4432 9.98438L11.619 17.6109L11.3104 16.0641C10.7882 14.2794 9.15067 12.3403 7.32324 11.3761L9.91017 21.1566H12.9598L17.4927 9.98438H14.4432Z" fill="#00579F"/>
<path d="M8.99593 9.98438H4.35605L4.30859 10.2103C7.92796 11.1383 10.325 13.3753 11.3099 16.064L10.3012 10.9244C10.1351 10.2102 9.62484 10.0079 8.99593 9.98438Z" fill="#FAA61A"/>
</g>
<defs>
<clipPath id="clip0_637_278">
<rect width="45" height="31.3" fill="white"/>
</clipPath>
</defs>
</svg>
